<?xml version="1.0" encoding="UTF-8" standalone="no"?>
<!-- Created with Inkscape (http://www.inkscape.org/) -->

<svg
   xmlns:dc="http://purl.org/dc/elements/1.1/"
   xmlns:cc="http://creativecommons.org/ns#"
   xmlns:rdf="http://www.w3.org/1999/02/22-rdf-syntax-ns#"
   xmlns:svg="http://www.w3.org/2000/svg"
   xmlns="http://www.w3.org/2000/svg"
   xmlns:sodipodi="http://sodipodi.sourceforge.net/DTD/sodipodi-0.dtd"
   xmlns:inkscape="http://www.inkscape.org/namespaces/inkscape"
   width="447"
   height="34"
   id="svg3772"
   version="1.1"
   inkscape:version="0.48.2 r9819"
   sodipodi:docname="mail_address.svg"
   inkscape:export-filename="/Users/TakahiroSaito/Desktop/mailaddress2.png"
   inkscape:export-xdpi="130"
   inkscape:export-ydpi="130">
  <defs
     id="defs3774" />
  <sodipodi:namedview
     inkscape:document-units="mm"
     pagecolor="#ffffff"
     bordercolor="#666666"
     borderopacity="1.0"
     inkscape:pageopacity="0.0"
     inkscape:pageshadow="2"
     inkscape:zoom="2.0000001"
     inkscape:cx="47.217629"
     inkscape:cy="-5.8061822"
     inkscape:current-layer="layer1"
     id="namedview3776"
     showgrid="false"
     inkscape:window-width="879"
     inkscape:window-height="461"
     inkscape:window-x="470"
     inkscape:window-y="149"
     inkscape:window-maximized="0"
     units="px"
     showguides="true"
     inkscape:guide-bbox="true" />
  <metadata
     id="metadata3778">
    <rdf:RDF>
      <cc:Work
         rdf:about="">
        <dc:format>image/svg+xml</dc:format>
        <dc:type
           rdf:resource="http://purl.org/dc/dcmitype/StillImage" />
        <dc:title />
      </cc:Work>
    </rdf:RDF>
  </metadata>
  <g
     inkscape:label="Layer 1"
     inkscape:groupmode="layer"
     id="layer1"
     transform="translate(0,-710.09445)">
    <g
       id="g3006"
       transform="matrix(0.45300379,0,0,0.45300379,1.9381747,406.41213)">
      <g
         id="flowRoot3797"
         style="font-size:72px;font-style:normal;font-variant:normal;font-weight:normal;font-stretch:normal;text-align:start;line-height:125%;letter-spacing:0px;word-spacing:0px;writing-mode:lr-tb;text-anchor:start;fill:#000000;fill-opacity:1;stroke:none;font-family:Sans;-inkscape-font-specification:Sans"
         transform="translate(-143.07911,529.43394)">
        <path
           inkscape:connector-curvature="0"
           id="path2987"
           d="m 280.63672,160.3636 0,6.11718 c -1.82816,-0.93746 -3.72659,-1.64059 -5.69531,-2.10937 -1.96878,-0.46872 -4.00784,-0.70309 -6.11719,-0.70313 -3.21096,4e-5 -5.62502,0.49223 -7.24219,1.47657 -1.59376,0.9844 -2.39063,2.46096 -2.39062,4.42968 -1e-5,1.50003 0.5742,2.68362 1.72265,3.55078 1.14843,0.84378 3.45702,1.65237 6.92578,2.42579 l 2.21485,0.49218 c 4.59372,0.9844 7.85153,2.37893 9.77343,4.1836 1.94528,1.78126 2.91794,4.27735 2.91797,7.48828 -3e-5,3.65626 -1.45315,6.55078 -4.35937,8.68359 -2.88284,2.13281 -6.85549,3.19922 -11.91797,3.19922 -2.10939,0 -4.31251,-0.21094 -6.60938,-0.63281 -2.27344,-0.39844 -4.67578,-1.00781 -7.20703,-1.82813 l 0,-6.67968 c 2.39062,1.24219 4.74609,2.17969 7.06641,2.8125 2.3203,0.60938 4.61717,0.91406 6.89062,0.91406 3.04686,0 5.39061,-0.51562 7.03125,-1.54688 1.6406,-1.05468 2.46092,-2.53124 2.46094,-4.42968 -2e-5,-1.7578 -0.59768,-3.10546 -1.79297,-4.04297 -1.1719,-0.93749 -3.76174,-1.83983 -7.76953,-2.70703 l -2.25,-0.52735 c -4.00782,-0.84373 -6.90235,-2.13279 -8.68359,-3.86719 -1.78126,-1.75778 -2.67188,-4.16013 -2.67188,-7.20703 0,-3.70309 1.3125,-6.56246 3.9375,-8.57812 2.62499,-2.01559 6.35155,-3.0234 11.17969,-3.02344 2.3906,4e-5 4.6406,0.17582 6.75,0.52734 2.10935,0.35161 4.05466,0.87895 5.83594,1.58204" />
        <path
           inkscape:connector-curvature="0"
           id="path2989"
           d="m 292.41406,183.03938 0,-23.83594 6.46875,0 0,23.58984 c -1e-5,3.72658 0.72655,6.52736 2.17969,8.40235 1.45311,1.85157 3.63279,2.77735 6.53906,2.77734 3.49217,1e-5 6.24607,-1.11327 8.26172,-3.33984 2.03903,-2.22656 3.05856,-5.26171 3.05859,-9.10547 l 0,-22.32422 6.46875,0 0,39.375 -6.46875,0 0,-6.04688 c -1.57034,2.39063 -3.39846,4.17188 -5.48437,5.34375 -2.06253,1.14844 -4.46487,1.72266 -7.20703,1.72266 -4.52345,0 -7.95704,-1.40625 -10.30078,-4.21875 -2.34376,-2.81249 -3.51563,-6.92577 -3.51563,-12.33984" />
        <path
           inkscape:connector-curvature="0"
           id="path2991"
           d="m 345.04297,192.67219 0,20.88281 -6.50391,0 0,-54.35156 6.50391,0 0,5.97656 c 1.35936,-2.34371 3.0703,-4.07809 5.13281,-5.20312 2.08592,-1.1484 4.57029,-1.72262 7.45313,-1.72266 4.78122,4e-5 8.66012,1.89848 11.63671,5.69531 2.99996,3.79691 4.49996,8.78909 4.5,14.97657 -4e-5,6.18751 -1.50004,11.17969 -4.5,14.97656 -2.97659,3.79687 -6.85549,5.69531 -11.63671,5.69531 -2.88284,0 -5.36721,-0.5625 -7.45313,-1.6875 -2.06251,-1.14843 -3.77345,-2.89453 -5.13281,-5.23828 m 22.00781,-13.74609 c -3e-5,-4.75779 -0.98441,-8.48435 -2.95312,-11.17969 -1.94535,-2.71872 -4.62894,-4.07809 -8.05079,-4.07813 -3.42189,4e-5 -6.1172,1.35941 -8.08593,4.07813 -1.94533,2.69534 -2.91798,6.4219 -2.91797,11.17969 -1e-5,4.75782 0.97264,8.4961 2.91797,11.21484 1.96873,2.69532 4.66404,4.04297 8.08593,4.04297 3.42185,0 6.10544,-1.34765 8.05079,-4.04297 1.96871,-2.71874 2.95309,-6.45702 2.95312,-11.21484" />
        <path
           inkscape:connector-curvature="0"
           id="path2993"
           d="m 390.74609,192.67219 0,20.88281 -6.5039,0 0,-54.35156 6.5039,0 0,5.97656 c 1.35936,-2.34371 3.0703,-4.07809 5.13282,-5.20312 2.08591,-1.1484 4.57029,-1.72262 7.45312,-1.72266 4.78122,4e-5 8.66012,1.89848 11.63672,5.69531 2.99996,3.79691 4.49996,8.78909 4.5,14.97657 -4e-5,6.18751 -1.50004,11.17969 -4.5,14.97656 -2.9766,3.79687 -6.8555,5.69531 -11.63672,5.69531 -2.88283,0 -5.36721,-0.5625 -7.45312,-1.6875 -2.06252,-1.14843 -3.77346,-2.89453 -5.13282,-5.23828 m 22.00782,-13.74609 c -4e-5,-4.75779 -0.98441,-8.48435 -2.95313,-11.17969 -1.94534,-2.71872 -4.62893,-4.07809 -8.05078,-4.07813 -3.4219,4e-5 -6.11721,1.35941 -8.08594,4.07813 -1.94532,2.69534 -2.91798,6.4219 -2.91797,11.17969 -10e-6,4.75782 0.97265,8.4961 2.91797,11.21484 1.96873,2.69532 4.66404,4.04297 8.08594,4.04297 3.42185,0 6.10544,-1.34765 8.05078,-4.04297 1.96872,-2.71874 2.95309,-6.45702 2.95313,-11.21484" />
        <path
           inkscape:connector-curvature="0"
           id="path2995"
           d="m 445.44922,163.7386 c -3.46877,3e-5 -6.21095,1.3594 -8.22656,4.07812 -2.01564,2.69534 -3.02345,6.39846 -3.02344,11.10938 -1e-5,4.71095 0.99608,8.42579 2.98828,11.14453 2.01561,2.69532 4.76951,4.04297 8.26172,4.04297 3.44529,0 6.17575,-1.35937 8.1914,-4.07813 2.0156,-2.71874 3.02341,-6.42186 3.02344,-11.10937 -3e-5,-4.66404 -1.00784,-8.35544 -3.02344,-11.07422 -2.01565,-2.74216 -4.74611,-4.11325 -8.1914,-4.11328 m 0,-5.48438 c 5.62497,4e-5 10.04294,1.82816 13.2539,5.48438 3.2109,3.65628 4.81637,8.71877 4.81641,15.1875 -4e-5,6.44532 -1.60551,11.50782 -4.81641,15.1875 -3.21096,3.65625 -7.62893,5.48437 -13.2539,5.48437 -5.64846,0 -10.07814,-1.82812 -13.28906,-5.48437 -3.18751,-3.67968 -4.78126,-8.74218 -4.78125,-15.1875 -1e-5,-6.46873 1.59374,-11.53122 4.78125,-15.1875 3.21092,-3.65622 7.6406,-5.48434 13.28906,-5.48438" />
        <path
           inkscape:connector-curvature="0"
           id="path2997"
           d="m 497.02344,165.25031 c -0.72659,-0.42184 -1.52347,-0.72652 -2.39063,-0.91406 -0.84377,-0.2109 -1.78127,-0.31637 -2.8125,-0.3164 -3.65627,3e-5 -6.46877,1.19534 -8.4375,3.58593 -1.94532,2.36722 -2.91798,5.77737 -2.91797,10.23047 l 0,20.74219 -6.5039,0 0,-39.375 6.5039,0 0,6.11719 c 1.35936,-2.39059 3.12889,-4.16012 5.3086,-5.3086 2.17966,-1.17183 4.8281,-1.75777 7.94531,-1.75781 0.44529,4e-5 0.93747,0.0352 1.47656,0.10547 0.53904,0.0469 1.13669,0.12895 1.79297,0.24609 l 0.0352,6.64453" />
        <path
           inkscape:connector-curvature="0"
           id="path2999"
           d="m 510.27734,148.02375 0,11.17969 13.32422,0 0,5.02734 -13.32422,0 0,21.375 c -10e-6,3.21095 0.43358,5.27345 1.30078,6.1875 0.89061,0.91407 2.68358,1.3711 5.37891,1.3711 l 6.64453,0 0,5.41406 -6.64453,0 c -4.9922,0 -8.43751,-0.92578 -10.33594,-2.77734 -1.89844,-1.875 -2.84766,-5.27343 -2.84765,-10.19532 l 0,-21.375 -4.7461,0 0,-5.02734 4.7461,0 0,-11.17969 6.5039,0" />
        <path
           inkscape:connector-curvature="0"
           id="path3001"
           d="m 552.14844,179.69953 c -3e-5,3.35158 0.832,5.9883 2.49609,7.91016 1.66403,1.89845 3.94919,2.84766 6.85547,2.84766 2.88277,0 5.14449,-0.96093 6.78516,-2.88282 1.66401,-1.92186 2.49604,-4.54686 2.49609,-7.875 -5e-5,-3.28122 -0.84379,-5.88278 -2.53125,-7.80468 -1.68754,-1.94529 -3.96098,-2.91794 -6.82031,-2.91797 -2.83597,3e-5 -5.09769,0.96096 -6.78516,2.88281 -1.66409,1.9219 -2.49612,4.53518 -2.49609,7.83984 m 19.16015,10.51172 c -1.40629,1.8047 -3.02348,3.14063 -4.85156,4.00781 -1.80473,0.84376 -3.9141,1.26563 -6.32812,1.26563 -4.03128,0 -7.31253,-1.45312 -9.84375,-4.35938 -2.50784,-2.92967 -3.76174,-6.73826 -3.76172,-11.42578 -2e-5,-4.68747 1.2656,-8.49606 3.79687,-11.42578 2.53123,-2.92965 5.80075,-4.39449 9.8086,-4.39453 2.41402,4e-5 4.53511,0.44535 6.36328,1.33594 1.82808,0.86722 3.43355,2.19144 4.8164,3.97265 l 0,-4.60546 5.02735,0 0,25.875 c 3.42182,-0.51562 6.09369,-2.07421 8.01562,-4.67579 1.94525,-2.62498 2.91791,-6.0117 2.91797,-10.16015 -6e-5,-2.50779 -0.37506,-4.86326 -1.125,-7.06641 -0.72662,-2.20309 -1.8399,-4.24215 -3.33984,-6.11719 -2.43756,-3.07027 -5.41412,-5.41402 -8.92969,-7.03125 -3.49223,-1.64058 -7.30082,-2.46089 -11.42578,-2.46093 -2.88285,4e-5 -5.64847,0.38676 -8.29688,1.16015 -2.64846,0.75005 -5.09768,1.87505 -7.34765,3.375 -3.67971,2.39067 -6.56252,5.53129 -8.64844,9.42188 -2.06251,3.86721 -3.09376,8.06252 -3.09375,12.58594 -10e-6,3.72657 0.66796,7.21876 2.00391,10.47656 1.35936,3.25782 3.31639,6.12891 5.87109,8.61328 2.46092,2.4375 5.30857,4.28906 8.54297,5.55469 3.23434,1.28905 6.69137,1.93358 10.37109,1.93359 3.0234,-1e-5 5.98824,-0.51563 8.89453,-1.54687 2.92964,-1.00782 5.61323,-2.46095 8.05078,-4.35938 l 3.16407,3.90234 c -2.92974,2.27343 -6.12896,4.00781 -9.59766,5.20313 -3.44535,1.21874 -6.94926,1.82811 -10.51172,1.82812 -4.33597,-1e-5 -8.42581,-0.77344 -12.26953,-2.32031 -3.84377,-1.52344 -7.26564,-3.75 -10.26562,-6.67969 -3.00001,-2.92968 -5.28517,-6.3164 -6.85547,-10.16015 -1.57032,-3.86718 -2.35548,-8.01561 -2.35547,-12.44531 -10e-6,-4.26561 0.79687,-8.33201 2.39062,-12.19922 1.59375,-3.86716 3.86718,-7.26559 6.82032,-10.19532 3.02342,-2.97651 6.5156,-5.24995 10.47656,-6.82031 3.96091,-1.5937 8.15622,-2.39057 12.58594,-2.39062 4.9687,5e-5 9.57417,1.01958 13.8164,3.05859 4.26557,2.03911 7.83979,4.93364 10.72266,8.68359 1.75775,2.29692 3.09368,4.79301 4.00781,7.48829 0.93743,2.69534 1.40618,5.4844 1.40625,8.36718 -7e-5,6.16408 -1.86335,11.02736 -5.58984,14.58985 -3.72662,3.5625 -8.87115,5.41406 -15.4336,5.55468 l 0,-5.41406" />
        <path
           inkscape:connector-curvature="0"
           id="path3003"
           d="m 629.24609,160.3636 0,6.11718 c -1.82815,-0.93746 -3.72659,-1.64059 -5.69531,-2.10937 -1.96877,-0.46872 -4.00783,-0.70309 -6.11719,-0.70313 -3.21095,4e-5 -5.62501,0.49223 -7.24218,1.47657 -1.59376,0.9844 -2.39064,2.46096 -2.39063,4.42968 -10e-6,1.50003 0.57421,2.68362 1.72266,3.55078 1.14842,0.84378 3.45701,1.65237 6.92578,2.42579 l 2.21484,0.49218 c 4.59373,0.9844 7.85154,2.37893 9.77344,4.1836 1.94528,1.78126 2.91793,4.27735 2.91797,7.48828 -4e-5,3.65626 -1.45316,6.55078 -4.35938,8.68359 -2.88284,2.13281 -6.85549,3.19922 -11.91797,3.19922 -2.10939,0 -4.31251,-0.21094 -6.60937,-0.63281 -2.27345,-0.39844 -4.67579,-1.00781 -7.20703,-1.82813 l 0,-6.67968 c 2.39062,1.24219 4.74608,2.17969 7.0664,2.8125 2.3203,0.60938 4.61718,0.91406 6.89063,0.91406 3.04685,0 5.3906,-0.51562 7.03125,-1.54688 1.6406,-1.05468 2.46091,-2.53124 2.46094,-4.42968 -3e-5,-1.7578 -0.59769,-3.10546 -1.79297,-4.04297 -1.1719,-0.93749 -3.76174,-1.83983 -7.76953,-2.70703 l -2.25,-0.52735 c -4.00783,-0.84373 -6.90235,-2.13279 -8.6836,-3.86719 -1.78125,-1.75778 -2.67188,-4.16013 -2.67187,-7.20703 -10e-6,-3.70309 1.31249,-6.56246 3.9375,-8.57812 2.62499,-2.01559 6.35155,-3.0234 11.17969,-3.02344 2.3906,4e-5 4.6406,0.17582 6.75,0.52734 2.10934,0.35161 4.05465,0.87895 5.83593,1.58204" />
        <path
           inkscape:connector-curvature="0"
           id="path3005"
           d="m 641.02344,183.03938 0,-23.83594 6.46875,0 0,23.58984 c -2e-5,3.72658 0.72655,6.52736 2.17968,8.40235 1.45311,1.85157 3.6328,2.77735 6.53907,2.77734 3.49216,1e-5 6.24606,-1.11327 8.26172,-3.33984 2.03903,-2.22656 3.05856,-5.26171 3.05859,-9.10547 l 0,-22.32422 6.46875,0 0,39.375 -6.46875,0 0,-6.04688 c -1.57034,2.39063 -3.39847,4.17188 -5.48438,5.34375 -2.06252,1.14844 -4.46486,1.72266 -7.20703,1.72266 -4.52345,0 -7.95704,-1.40625 -10.30078,-4.21875 -2.34375,-2.81249 -3.51563,-6.92577 -3.51562,-12.33984" />
        <path
           inkscape:connector-curvature="0"
           id="path3007"
           d="m 720.125,174.81281 0,23.76563 -6.46875,0 0,-23.55469 c -3e-5,-3.72653 -0.72659,-6.51559 -2.17969,-8.36719 -1.45315,-1.85152 -3.63284,-2.7773 -6.53906,-2.77734 -3.49221,4e-5 -6.24611,1.11332 -8.26172,3.33984 -2.01564,2.2266 -3.02345,5.26175 -3.02344,9.10547 l 0,22.25391 -6.5039,0 0,-39.375 6.5039,0 0,6.11719 c 1.54686,-2.36715 3.36327,-4.13668 5.44922,-5.3086 2.10936,-1.17183 4.53514,-1.75777 7.27735,-1.75781 4.5234,4e-5 7.94528,1.40629 10.26562,4.21875 2.32028,2.7891 3.48043,6.90237 3.48047,12.33984" />
        <path
           inkscape:connector-curvature="0"
           id="path3009"
           d="m 739.35547,192.67219 0,20.88281 -6.50391,0 0,-54.35156 6.50391,0 0,5.97656 c 1.35936,-2.34371 3.0703,-4.07809 5.13281,-5.20312 2.08592,-1.1484 4.57029,-1.72262 7.45313,-1.72266 4.78122,4e-5 8.66012,1.89848 11.63671,5.69531 2.99996,3.79691 4.49996,8.78909 4.5,14.97657 -4e-5,6.18751 -1.50004,11.17969 -4.5,14.97656 -2.97659,3.79687 -6.85549,5.69531 -11.63671,5.69531 -2.88284,0 -5.36721,-0.5625 -7.45313,-1.6875 -2.06251,-1.14843 -3.77345,-2.89453 -5.13281,-5.23828 m 22.00781,-13.74609 c -3e-5,-4.75779 -0.98441,-8.48435 -2.95312,-11.17969 -1.94535,-2.71872 -4.62894,-4.07809 -8.05079,-4.07813 -3.42189,4e-5 -6.1172,1.35941 -8.08593,4.07813 -1.94533,2.69534 -2.91798,6.4219 -2.91797,11.17969 -10e-6,4.75782 0.97264,8.4961 2.91797,11.21484 1.96873,2.69532 4.66404,4.04297 8.08593,4.04297 3.42185,0 6.10544,-1.34765 8.05079,-4.04297 1.96871,-2.71874 2.95309,-6.45702 2.95312,-11.21484" />
        <path
           inkscape:connector-curvature="0"
           id="path3011"
           d="m 796.69531,178.78547 c -5.22658,2e-5 -8.84767,0.59768 -10.86328,1.79297 -2.01564,1.19533 -3.02345,3.23439 -3.02344,6.11719 -10e-6,2.29688 0.74999,4.125 2.25,5.48437 1.52343,1.33594 3.58592,2.00391 6.1875,2.00391 3.58592,0 6.45701,-1.26562 8.61328,-3.79688 2.17966,-2.55467 3.26951,-5.94139 3.26954,-10.16015 l 0,-1.44141 -6.4336,0 m 12.90235,-2.67187 0,22.46484 -6.46875,0 0,-5.97656 c -1.4766,2.39063 -3.31644,4.16016 -5.51954,5.30859 -2.20314,1.125 -4.89845,1.6875 -8.08593,1.6875 -4.03127,0 -7.2422,-1.125 -9.63282,-3.375 -2.36719,-2.27343 -3.55078,-5.30859 -3.55078,-9.10547 0,-4.42967 1.47656,-7.76951 4.42969,-10.01953 2.97655,-2.24998 7.40624,-3.37497 13.28906,-3.375 l 9.07032,0 0,-0.63281 c -3e-5,-2.97654 -0.98441,-5.27341 -2.95313,-6.89063 -1.94534,-1.64059 -4.68752,-2.4609 -8.22656,-2.46093 -2.25002,3e-5 -4.44142,0.26956 -6.57422,0.80859 -2.13282,0.5391 -4.1836,1.34769 -6.15234,2.42578 l 0,-5.97656 c 2.36717,-0.91403 4.66405,-1.59371 6.89062,-2.03906 2.22655,-0.46871 4.39451,-0.70309 6.50391,-0.70313 5.69528,4e-5 9.94919,1.4766 12.76172,4.42969 2.81246,2.95316 4.21871,7.42971 4.21875,13.42969" />
        <path
           inkscape:connector-curvature="0"
           id="path3013"
           d="m 848.05859,160.3636 0,6.11718 c -1.82815,-0.93746 -3.72659,-1.64059 -5.69531,-2.10937 -1.96877,-0.46872 -4.00783,-0.70309 -6.11719,-0.70313 -3.21095,4e-5 -5.62501,0.49223 -7.24218,1.47657 -1.59376,0.9844 -2.39064,2.46096 -2.39063,4.42968 -10e-6,1.50003 0.57421,2.68362 1.72266,3.55078 1.14842,0.84378 3.45701,1.65237 6.92578,2.42579 l 2.21484,0.49218 c 4.59373,0.9844 7.85154,2.37893 9.77344,4.1836 1.94528,1.78126 2.91793,4.27735 2.91797,7.48828 -4e-5,3.65626 -1.45316,6.55078 -4.35938,8.68359 -2.88284,2.13281 -6.85549,3.19922 -11.91797,3.19922 -2.10939,0 -4.31251,-0.21094 -6.60937,-0.63281 -2.27345,-0.39844 -4.67579,-1.00781 -7.20703,-1.82813 l 0,-6.67968 c 2.39062,1.24219 4.74608,2.17969 7.0664,2.8125 2.3203,0.60938 4.61718,0.91406 6.89063,0.91406 3.04685,0 5.3906,-0.51562 7.03125,-1.54688 1.6406,-1.05468 2.46091,-2.53124 2.46094,-4.42968 -3e-5,-1.7578 -0.59769,-3.10546 -1.79297,-4.04297 -1.1719,-0.93749 -3.76174,-1.83983 -7.76953,-2.70703 l -2.25,-0.52735 c -4.00783,-0.84373 -6.90235,-2.13279 -8.6836,-3.86719 -1.78125,-1.75778 -2.67188,-4.16013 -2.67187,-7.20703 -10e-6,-3.70309 1.31249,-6.56246 3.9375,-8.57812 2.62499,-2.01559 6.35155,-3.0234 11.17969,-3.02344 2.3906,4e-5 4.6406,0.17582 6.75,0.52734 2.10934,0.35161 4.05465,0.87895 5.83593,1.58204" />
        <path
           inkscape:connector-curvature="0"
           id="path3015"
           d="m 894.18359,177.27375 0,3.16406 -29.74218,0 c 0.28124,4.45314 1.61717,7.85158 4.00781,10.19532 2.41404,2.32032 5.7656,3.48047 10.05469,3.48047 2.48434,0 4.88669,-0.30469 7.20703,-0.91407 2.34371,-0.60937 4.66402,-1.52343 6.96093,-2.74218 l 0,6.11718 c -2.32034,0.98438 -4.69925,1.73438 -7.13671,2.25 -2.43753,0.51563 -4.91019,0.77344 -7.41797,0.77344 -6.28127,0 -11.26173,-1.82812 -14.94141,-5.48437 -3.65625,-3.65625 -5.48438,-8.60155 -5.48437,-14.83594 -10e-6,-6.44529 1.73437,-11.55466 5.20312,-15.32813 3.49218,-3.79683 8.19139,-5.69527 14.09766,-5.69531 5.29684,4e-5 9.48043,1.71098 12.55078,5.13281 3.09371,3.39847 4.64058,8.02737 4.64062,13.88672 m -6.46875,-1.89844 c -0.0469,-3.53903 -1.043,-6.36325 -2.98828,-8.47265 -1.9219,-2.10934 -4.47659,-3.16403 -7.66406,-3.16406 -3.60939,3e-5 -6.50392,1.01956 -8.68359,3.05859 -2.15627,2.03909 -3.39845,4.91018 -3.72657,8.61328 l 23.0625,-0.0352" />
        <path
           inkscape:connector-curvature="0"
           id="path3017"
           d="m 920.05859,163.7386 c -3.46876,3e-5 -6.21095,1.3594 -8.22656,4.07812 -2.01564,2.69534 -3.02345,6.39846 -3.02344,11.10938 -10e-6,4.71095 0.99609,8.42579 2.98828,11.14453 2.01561,2.69532 4.76952,4.04297 8.26172,4.04297 3.44529,0 6.17576,-1.35937 8.19141,-4.07813 2.01559,-2.71874 3.0234,-6.42186 3.02344,-11.10937 -4e-5,-4.66404 -1.00785,-8.35544 -3.02344,-11.07422 -2.01565,-2.74216 -4.74612,-4.11325 -8.19141,-4.11328 m 0,-5.48438 c 5.62498,4e-5 10.04294,1.82816 13.25391,5.48438 3.2109,3.65628 4.81637,8.71877 4.81641,15.1875 -4e-5,6.44532 -1.60551,11.50782 -4.81641,15.1875 -3.21097,3.65625 -7.62893,5.48437 -13.25391,5.48437 -5.64845,0 -10.07813,-1.82812 -13.28906,-5.48437 -3.1875,-3.67968 -4.78125,-8.74218 -4.78125,-15.1875 0,-6.46873 1.59375,-11.53122 4.78125,-15.1875 3.21093,-3.65622 7.64061,-5.48434 13.28906,-5.48438" />
        <path
           inkscape:connector-curvature="0"
           id="path3019"
           d="m 948.46484,189.64875 7.41797,0 0,8.92969 -7.41797,0 0,-8.92969" />
        <path
           inkscape:connector-curvature="0"
           id="path3021"
           d="m 998.80859,160.71516 0,6.04687 c -1.82815,-1.00778 -3.668,-1.75778 -5.51953,-2.25 -1.82815,-0.51559 -3.67971,-0.7734 -5.55469,-0.77343 -4.19533,3e-5 -7.45314,1.33597 -9.77343,4.00781 -2.32033,2.64846 -3.48048,6.37502 -3.48047,11.17969 -10e-6,4.8047 1.16014,8.54298 3.48047,11.21484 2.32029,2.64844 5.5781,3.97266 9.77343,3.97266 1.87498,0 3.72654,-0.24609 5.55469,-0.73829 1.85153,-0.51561 3.69138,-1.27733 5.51953,-2.28515 l 0,5.97656 c -1.80472,0.84375 -3.67972,1.47656 -5.625,1.89844 -1.9219,0.42187 -3.97268,0.63281 -6.15234,0.63281 -5.9297,0 -10.64064,-1.86328 -14.13281,-5.58984 -3.4922,-3.72656 -5.23829,-8.7539 -5.23828,-15.08203 -10e-6,-6.42185 1.7578,-11.47263 5.27343,-15.15235 3.53905,-3.67965 8.37889,-5.51949 14.51953,-5.51953 1.99217,4e-5 3.93748,0.21098 5.83594,0.63281 1.89841,0.39848 3.73825,1.00785 5.51953,1.82813" />
        <path
           inkscape:connector-curvature="0"
           id="path3023"
           d="m 1025.3867,163.7386 c -3.4687,3e-5 -6.2109,1.3594 -8.2265,4.07812 -2.0157,2.69534 -3.0235,6.39846 -3.0235,11.10938 0,4.71095 0.9961,8.42579 2.9883,11.14453 2.0156,2.69532 4.7695,4.04297 8.2617,4.04297 3.4453,0 6.1758,-1.35937 8.1914,-4.07813 2.0156,-2.71874 3.0234,-6.42186 3.0235,-11.10937 -10e-5,-4.66404 -1.0079,-8.35544 -3.0235,-11.07422 -2.0156,-2.74216 -4.7461,-4.11325 -8.1914,-4.11328 m 0,-5.48438 c 5.625,4e-5 10.043,1.82816 13.2539,5.48438 3.2109,3.65628 4.8164,8.71877 4.8164,15.1875 0,6.44532 -1.6055,11.50782 -4.8164,15.1875 -3.2109,3.65625 -7.6289,5.48437 -13.2539,5.48437 -5.6484,0 -10.0781,-1.82812 -13.289,-5.48437 -3.1875,-3.67968 -4.7813,-8.74218 -4.7813,-15.1875 0,-6.46873 1.5938,-11.53122 4.7813,-15.1875 3.2109,-3.65622 7.6406,-5.48434 13.289,-5.48438" />
        <path
           inkscape:connector-curvature="0"
           id="path3025"
           d="m 1084.8008,166.76203 c 1.6171,-2.90621 3.5507,-5.05074 5.8008,-6.43359 2.2499,-1.38277 4.8984,-2.07418 7.9453,-2.07422 4.1015,4e-5 7.2655,1.44145 9.4922,4.32422 2.2265,2.85941 3.3397,6.93753 3.3398,12.23437 l 0,23.76563 -6.5039,0 0,-23.55469 c -10e-5,-3.77341 -0.668,-6.57419 -2.0039,-8.40234 -1.336,-1.82809 -3.3751,-2.74215 -6.1172,-2.74219 -3.3516,4e-5 -6,1.11332 -7.9453,3.33984 -1.9454,2.2266 -2.918,5.26175 -2.918,9.10547 l 0,22.25391 -6.5039,0 0,-23.55469 c 0,-3.79685 -0.668,-6.59762 -2.0039,-8.40234 -1.336,-1.82809 -3.3985,-2.74215 -6.1875,-2.74219 -3.3047,4e-5 -5.9297,1.12503 -7.875,3.375 -1.9453,2.22659 -2.918,5.25003 -2.918,9.07031 l 0,22.25391 -6.5039,0 0,-39.375 6.5039,0 0,6.11719 c 1.4766,-2.41403 3.2461,-4.19528 5.3086,-5.34375 2.0625,-1.1484 4.5117,-1.72262 7.3477,-1.72266 2.8593,4e-5 5.2851,0.7266 7.2773,2.17969 2.0156,1.45316 3.5039,3.56253 4.4649,6.32812" />
      </g>
      <g
         inkscape:label="Layer 1"
         id="layer1-3"
         transform="translate(0.58267703,-4.0650608)">
        <rect
           style="fill:none;stroke:#000000;stroke-width:3.88565326;stroke-miterlimit:4;stroke-opacity:1;stroke-dasharray:none"
           id="rect6243"
           width="77.610413"
           height="53.575981"
           x="4.9034567"
           y="687.32574"
           rx="5.525157"
           ry="5.525157"
           inkscape:export-filename="/Users/TakahiroSaito/Desktop/path6755.png"
           inkscape:export-xdpi="2.5644505"
           inkscape:export-ydpi="2.5644505" />
        <path
           style="fill:none;stroke:#000000;stroke-width:4.14386702;stroke-linecap:butt;stroke-linejoin:miter;stroke-miterlimit:4;stroke-opacity:1;stroke-dasharray:none"
           d="m 7.7859522,689.51198 31.2376068,25.39643 c 3.851792,3.25922 6.373325,2.70636 9.091438,0.54644 10.66684,-8.47624 31.542848,-25.94287 31.542848,-25.94287"
           id="path6755"
           inkscape:connector-curvature="0"
           sodipodi:nodetypes="ccsc"
           inkscape:export-xdpi="2.5644505"
           inkscape:export-ydpi="2.5644505" />
      </g>
    </g>
  </g>
</svg>
